<?xml version="1.0" encoding="utf-8"?>
<!-- Generator: Adobe Illustrator 15.0.0, SVG Export Plug-In . SVG Version: 6.00 Build 0)  -->
<!DOCTYPE svg PUBLIC "-//W3C//DTD SVG 1.1//EN" "http://www.w3.org/Graphics/SVG/1.1/DTD/svg11.dtd">
<svg version="1.1" id="Layer_1" xmlns="http://www.w3.org/2000/svg" xmlns:xlink="http://www.w3.org/1999/xlink" x="0px" y="0px"
	 width="61.624px" height="20.971px" viewBox="0 0 61.624 20.971" enable-background="new 0 0 61.624 20.971" xml:space="preserve">
<g>
	<rect x="13.526" y="9.031" fill="none" width="48.098" height="9.782"/>
	<path fill="#FFFFFF" d="M19.019,16.867c0,0.84-1.127,1.271-2.303,1.271c-1.523,0-2.471-0.72-2.471-1.931v-2.422
		c0-1.211,0.899-1.931,2.422-1.931c1.523,0,2.279,0.72,2.279,1.811c0,0.972-0.66,1.775-2.422,1.775
		c-0.408,0-1.032-0.084-1.319-0.288v0.875c0,0.839,0.468,1.271,1.583,1.271c1.043,0,1.919-0.432,1.919-1.271
		C18.923,16.339,19.019,16.615,19.019,16.867z M15.205,14.385c0.012,0.024,0.731,0.216,1.247,0.216c1.14,0,1.535-0.348,1.535-0.936
		c0-0.612-0.336-1.031-1.319-1.031c-1.067,0-1.463,0.492-1.463,1.331V14.385z"/>
	<path fill="#FFFFFF" d="M24.312,13.833c0-0.744-0.384-1.175-1.451-1.175c-0.875,0-1.439,0.251-1.439,0.251v5.169
		c0,0-0.959,0-0.959-0.6v-5.565c0.276,0.144,0.54,0.192,0.78,0.192c0.576,0,1.104-0.252,1.787-0.252
		c1.091,0,2.243,0.384,2.243,1.799v4.426c0,0-0.959-0.012-0.959-0.6V13.833z"/>
	<path fill="#FFFFFF" d="M26.894,9.012c0.06,0,0.959,0.012,0.959,0.6v6.38c0,0.72,0.216,1.787,0.863,1.787
		c-0.252,0.216-0.492,0.3-0.708,0.3c-0.768,0-1.115-0.792-1.115-1.703V9.012z"/>
	<path fill="#F4F411" d="M29.593,9.767h0.756c0.108,0,0.204,0.108,0.204,0.216v0.792h-0.744c-0.12,0-0.216-0.096-0.216-0.216V9.767z
		 M29.593,11.914c0,0,0.959-0.012,0.959,0.6v5.565c0,0-0.959,0-0.959-0.6V11.914z"/>
	<path fill="#FFFFFF" d="M32.437,15.524c-0.252-0.312-0.384-0.72-0.384-1.211v-0.684c0-1.295,1.043-1.775,2.135-1.775
		c0.66,0,1.175,0.228,1.727,0.228c0.264,0,0.54-0.048,0.839-0.192v2.422c0,1.211-0.827,1.931-2.351,1.931
		c-1.055,0-1.547-0.36-1.547-0.36c-0.06,0.264-0.096,0.468-0.096,0.636c0,0.647,0.444,0.731,1.439,0.731h0.396
		c1.14,0,2.399,0.072,2.399,1.595c0,1.211-0.804,2.051-2.591,2.051c-1.355,0-2.435-0.42-2.435-1.247c0-0.252,0.096-0.54,0.324-0.864
		c0,0.84,0.756,1.332,2.111,1.332c1.283,0,1.631-0.552,1.631-1.224c0-0.768-0.612-0.839-1.475-0.839h-0.588
		c-1.043,0-2.099-0.096-2.099-1.367C31.873,16.22,32.113,15.884,32.437,15.524z M34.403,15.464c1.115,0,1.391-0.492,1.391-1.331
		v-1.224c0,0-0.563-0.288-1.439-0.288c-1.067,0-1.343,0.36-1.343,1.188v0.324C33.012,14.972,33.288,15.464,34.403,15.464z"/>
	<path fill="#FFFFFF" d="M39.156,18.079c0,0-0.959,0-0.959-0.6V9.036c0.072,0,0.959-0.024,0.959,0.72v1.667
		c0,0.815-0.12,1.091-0.12,1.091s0.419-0.66,1.871-0.66c1.127,0,2.099,0.708,2.099,1.895v4.33c0,0-0.959-0.012-0.959-0.6v-3.55
		c0-0.899-0.552-1.295-1.295-1.295c-0.792,0-1.595,0.479-1.595,1.175V18.079z"/>
	<path fill="#FFFFFF" d="M44.688,10.571c0,0,0.959,0.012,0.959,0.612v0.995h2.507c0,0-0.012,0.828-0.6,0.828h-1.907v2.866
		c0,0.864,0.3,1.427,1.248,1.427c0.828,0,1.535-0.456,1.535-1.271c0.228,0.335,0.324,0.636,0.324,0.887
		c0,0.816-0.983,1.224-1.955,1.224c-1.283,0-2.111-0.72-2.111-1.931V10.571z"/>
	<path fill="#FFFFFF" d="M54.322,16.867c0,0.84-1.127,1.271-2.303,1.271c-1.523,0-2.471-0.72-2.471-1.931v-2.422
		c0-1.211,0.899-1.931,2.422-1.931c1.523,0,2.279,0.72,2.279,1.811c0,0.972-0.66,1.775-2.422,1.775
		c-0.408,0-1.032-0.084-1.319-0.288v0.875c0,0.839,0.468,1.271,1.583,1.271c1.043,0,1.919-0.432,1.919-1.271
		C54.226,16.339,54.322,16.615,54.322,16.867z M50.508,14.385c0.012,0.024,0.731,0.216,1.247,0.216c1.14,0,1.535-0.348,1.535-0.936
		c0-0.612-0.336-1.031-1.319-1.031c-1.067,0-1.463,0.492-1.463,1.331V14.385z"/>
	<path fill="#FFFFFF" d="M59.614,13.833c0-0.744-0.384-1.175-1.451-1.175c-0.875,0-1.439,0.251-1.439,0.251v5.169
		c0,0-0.959,0-0.959-0.6v-5.565c0.276,0.144,0.54,0.192,0.78,0.192c0.576,0,1.104-0.252,1.787-0.252
		c1.091,0,2.243,0.384,2.243,1.799v4.426c0,0-0.959-0.012-0.959-0.6V13.833z"/>
</g>
<g>
	<path fill="#FFFFFF" d="M14.002,8.355c0,0.922-0.248,1.821-0.697,2.631c-0.022,0.066-0.045,0.112-0.089,0.158l-0.046,0.066
		c-0.179,0.271-0.36,0.54-0.584,0.764c-0.787,1.101-1.191,2.045-1.17,2.651v0.023c0,0.045,0.023,0.112,0.023,0.178v1.934
		c0,0.854-0.697,1.528-1.528,1.528H7.417c-0.854,0-1.528-0.697-1.528-1.528v-1.934c0-0.046,0-0.066,0-0.112c0-0.022,0-0.066,0-0.089
		c0.023-0.585-0.383-1.507-1.124-2.585c-0.248-0.271-0.495-0.563-0.674-0.899c-0.022-0.046-0.045-0.066-0.066-0.112
		c-0.473-0.81-0.72-1.731-0.72-2.651c0-2.945,2.406-5.35,5.349-5.35C11.596,3.006,14.002,5.41,14.002,8.355z M10.607,15.052H6.72
		v0.764h3.888V15.052L10.607,15.052z M10.607,16.807v-0.158H6.72v0.158c0.045,0.36,0.337,0.628,0.697,0.628h2.495
		C10.27,17.436,10.563,17.167,10.607,16.807z M13.169,8.355c0-2.495-2.023-4.518-4.519-4.518c-2.495,0-4.518,2.023-4.518,4.518
		c0,0.81,0.225,1.597,0.628,2.293l0,0c0,0,0,0,0,0.023c0.179,0.291,0.383,0.561,0.607,0.809c0.023,0.023,0.023,0.023,0.046,0.046
		c0.741,1.057,1.17,1.957,1.282,2.697h3.934c0.135-0.922,0.764-1.977,1.326-2.764c0-0.023,0.023-0.023,0.046-0.046
		c0.202-0.202,0.383-0.45,0.516-0.698c0-0.022,0.023-0.022,0.023-0.045c0-0.023,0.023-0.023,0.023-0.046
		C12.967,9.952,13.169,9.165,13.169,8.355z"/>
</g>
<g>
	<path fill="#F4F411" d="M11.934,2.131l0.495-0.833c0.112-0.202,0.36-0.271,0.563-0.158c0.201,0.112,0.271,0.36,0.158,0.562
		l-0.495,0.833c-0.066,0.135-0.225,0.202-0.36,0.202c-0.067,0-0.135-0.023-0.202-0.046C11.888,2.581,11.822,2.335,11.934,2.131z"/>
	<path fill="#F4F411" d="M4.652,2.537c0.066,0.136,0.225,0.202,0.36,0.202c0.066,0,0.135-0.023,0.202-0.045
		c0.202-0.113,0.271-0.36,0.158-0.562L4.876,1.299c-0.112-0.202-0.36-0.271-0.562-0.158c-0.202,0.112-0.271,0.36-0.158,0.562
		L4.652,2.537z"/>
	<path fill="#F4F411" d="M8.652,1.773c0.225,0,0.404-0.179,0.404-0.404V0.404C9.056,0.179,8.876,0,8.652,0S8.248,0.179,8.248,0.404
		V1.37C8.225,1.592,8.404,1.773,8.652,1.773z"/>
	<path fill="#F4F411" d="M1.369,8.223H0.404C0.179,8.223,0,8.402,0,8.627c0,0.224,0.179,0.404,0.404,0.404h0.965
		c0.225,0,0.404-0.18,0.404-0.404C1.773,8.402,1.594,8.223,1.369,8.223z"/>
	<path fill="#F4F411" d="M16.902,8.223h-0.966c-0.225,0-0.404,0.179-0.404,0.404c0,0.224,0.18,0.404,0.404,0.404h0.966
		c0.225,0,0.403-0.18,0.403-0.404C17.306,8.402,17.127,8.223,16.902,8.223z"/>
	<path fill="#F4F411" d="M16.159,4.313c-0.112-0.202-0.36-0.271-0.562-0.158l-0.833,0.495c-0.202,0.112-0.271,0.36-0.158,0.562
		c0.067,0.136,0.225,0.202,0.36,0.202c0.066,0,0.135-0.023,0.202-0.046L16,4.873C16.205,4.762,16.271,4.515,16.159,4.313z"/>
	<path fill="#F4F411" d="M2.539,4.649L1.707,4.154C1.504,4.042,1.257,4.108,1.145,4.313C1.032,4.515,1.099,4.762,1.303,4.875
		L2.135,5.37c0.067,0.046,0.136,0.046,0.202,0.046c0.135,0,0.292-0.067,0.36-0.202C2.808,5.009,2.741,4.762,2.539,4.649z"/>
</g>
</svg>
